<svg id="svg" fill="#cc9933" stroke="#cc9933" width="36" height="36" version="1.1" viewBox="144 144 512 512" xmlns="http://www.w3.org/2000/svg">
    <g id="IconSvg_bgCarrier" stroke-width="0"></g>
    <g id="IconSvg_tracerCarrier" stroke-linecap="round" stroke-linejoin="round" stroke="#CCCCCC" stroke-width="0">
      <g xmlns="http://www.w3.org/2000/svg">
  <path d="m579.08 176h-358.16c-25.512 0-46.281 20.762-46.281 46.281v358.16c0.003906 25.512 20.766 46.273 46.277 46.273h358.16c25.512 0 46.281-20.762 46.281-46.281v-358.16c-0.003907-25.512-20.766-46.273-46.277-46.273zm31.16 404.43c0 17.184-13.977 31.164-31.164 31.164h-358.16c-17.184 0-31.164-13.98-31.164-31.164v-358.16c0-17.184 13.977-31.164 31.164-31.164h358.16c17.184 0 31.164 13.98 31.164 31.164z"></path>
  <path d="m530.34 272.12h-260.67c-9.5391 0-17.336 7.8008-17.336 17.332v17.324c0 9.5312 7.8047 17.332 17.336 17.332h260.67c9.5156 0 17.324-7.8008 17.324-17.332v-17.324c0.007813-9.5352-7.8086-17.332-17.324-17.332z"></path>
  <path d="m530.34 373.93h-260.67c-9.5391 0-17.336 7.793-17.336 17.324v17.332c0 9.5391 7.8047 17.332 17.336 17.332h260.67c9.5156 0 17.324-7.8008 17.324-17.332v-17.332c0.007813-9.5234-7.8086-17.324-17.324-17.324z"></path>
  <path d="m530.34 475.75h-260.67c-9.5391 0-17.336 7.8008-17.336 17.332v17.332c0 9.5312 7.8047 17.332 17.336 17.332h260.67c9.5156 0 17.324-7.8008 17.324-17.332v-17.332c0.007813-9.5312-7.8086-17.332-17.324-17.332z"></path>
 </g>

      </g>
     <g id="IconSvg_iconCarrier">
      <g xmlns="http://www.w3.org/2000/svg">
  <path d="m579.08 176h-358.16c-25.512 0-46.281 20.762-46.281 46.281v358.16c0.003906 25.512 20.766 46.273 46.277 46.273h358.16c25.512 0 46.281-20.762 46.281-46.281v-358.16c-0.003907-25.512-20.766-46.273-46.277-46.273zm31.16 404.43c0 17.184-13.977 31.164-31.164 31.164h-358.16c-17.184 0-31.164-13.98-31.164-31.164v-358.16c0-17.184 13.977-31.164 31.164-31.164h358.16c17.184 0 31.164 13.98 31.164 31.164z"></path>
  <path d="m530.34 272.12h-260.67c-9.5391 0-17.336 7.8008-17.336 17.332v17.324c0 9.5312 7.8047 17.332 17.336 17.332h260.67c9.5156 0 17.324-7.8008 17.324-17.332v-17.324c0.007813-9.5352-7.8086-17.332-17.324-17.332z"></path>
  <path d="m530.34 373.93h-260.67c-9.5391 0-17.336 7.793-17.336 17.324v17.332c0 9.5391 7.8047 17.332 17.336 17.332h260.67c9.5156 0 17.324-7.8008 17.324-17.332v-17.332c0.007813-9.5234-7.8086-17.324-17.324-17.324z"></path>
  <path d="m530.34 475.75h-260.67c-9.5391 0-17.336 7.8008-17.336 17.332v17.332c0 9.5312 7.8047 17.332 17.336 17.332h260.67c9.5156 0 17.324-7.8008 17.324-17.332v-17.332c0.007813-9.5312-7.8086-17.332-17.324-17.332z"></path>
 </g>

      </g>
      </svg>